<svg width="38" height="46" viewBox="0 0 38 46" fill="none" xmlns="http://www.w3.org/2000/svg">
<path id="Vector" d="M31.7705 24.3216C31.7365 22.5502 32.1903 20.8042 33.0808 19.2805C33.9712 17.7567 35.2631 16.5156 36.8107 15.6969C35.8361 14.3211 34.5634 13.1909 33.0906 12.3934C31.6178 11.5959 29.9842 11.1524 28.3159 11.0971C24.7198 10.8096 20.8122 13.2245 19.3681 13.2245C17.924 13.2245 14.3562 11.2121 11.6379 11.2121C5.97466 11.2121 0 15.7832 0 24.8966C0.0273086 27.7373 0.515207 30.5541 1.44411 33.2338C2.69001 36.9137 7.36215 46.1421 12.2325 45.9983C14.7809 45.9983 16.5931 44.1584 19.9061 44.1584C23.2191 44.1584 24.7765 45.9983 27.6364 45.9983C32.535 45.9983 36.7824 37.5174 38 33.7513C36.1564 32.9858 34.5792 31.68 33.4696 30.0005C32.3601 28.321 31.7686 26.3439 31.7705 24.3216ZM26.1073 7.44598C26.9871 6.43875 27.6505 5.25642 28.0551 3.9744C28.4598 2.69237 28.5968 1.3388 28.4575 0C25.8145 0.29703 23.3734 1.57721 21.6051 3.59362C20.6902 4.56982 19.984 5.72753 19.5308 6.99406C19.0776 8.26059 18.8873 9.60857 18.9717 10.9534C20.3429 10.9925 21.703 10.6939 22.9358 10.0831C24.1686 9.47227 25.2373 8.56746 26.0507 7.44598H26.1073Z" fill="#FFFEFE"/>
</svg>
