<svg width="32" height="36" viewBox="0 0 32 36" fill="none" xmlns="http://www.w3.org/2000/svg">
<g id="Group">
<path id="Vector" d="M4.59667 16.8183C4.475 19.145 4.615 21.6217 2.53667 23.18C2.05884 23.5376 1.6711 24.0017 1.40432 24.5356C1.13754 25.0694 0.999096 25.6582 1 26.255C1 27.9167 2.30334 29.3333 4 29.3333H28C29.6967 29.3333 31 27.9167 31 26.255C31 25.045 30.43 23.905 29.4633 23.18C27.385 21.6217 27.525 19.145 27.4033 16.8183C27.2533 13.8951 25.9865 11.1412 23.8644 9.12516C21.7423 7.10916 18.927 5.98508 16 5.98508C13.073 5.98508 10.2577 7.10916 8.1356 9.12516C6.01351 11.1412 4.74665 13.8951 4.59667 16.8183Z" fill="black" stroke="#FFFEFE" stroke-width="1.5" stroke-linecap="round" stroke-linejoin="round"/>
<g id="Vector_2">
<path d="M13.5 2.875C13.5 4.255 14.62 6 16 6C17.38 6 18.5 4.255 18.5 2.875C18.5 1.495 17.38 1 16 1C14.62 1 13.5 1.495 13.5 2.875ZM21 29.3333C21 30.6594 20.4732 31.9312 19.5355 32.8689C18.5979 33.8065 17.3261 34.3333 16 34.3333C14.6739 34.3333 13.4021 33.8065 12.4645 32.8689C11.5268 31.9312 11 30.6594 11 29.3333" fill="black"/>
<path d="M21 29.3333C21 30.6594 20.4732 31.9312 19.5355 32.8689C18.5979 33.8065 17.3261 34.3333 16 34.3333C14.6739 34.3333 13.4021 33.8065 12.4645 32.8689C11.5268 31.9312 11 30.6594 11 29.3333M13.5 2.875C13.5 4.255 14.62 6 16 6C17.38 6 18.5 4.255 18.5 2.875C18.5 1.495 17.38 1 16 1C14.62 1 13.5 1.495 13.5 2.875Z" stroke="#FFFEFE" stroke-width="1.5" stroke-linecap="round" stroke-linejoin="round"/>
</g>
</g>
</svg>
