<svg width="31" height="31" viewBox="0 0 31 31" fill="none" xmlns="http://www.w3.org/2000/svg">
<g id="Group">
<path id="Vector" d="M15.5 1.16666C7.49165 1.16666 1 7.65831 1 15.6667C1 23.675 7.49165 30.1667 15.5 30.1667C23.5084 30.1667 30 23.675 30 15.6667C30 7.65831 23.5084 1.16666 15.5 1.16666Z" fill="black" stroke="#FFFEFE" stroke-width="1.5" stroke-linecap="round" stroke-linejoin="round"/>
<g id="Vector_2">
<path d="M4.29272 24.8684C4.29272 24.8684 7.52477 20.7417 15.4998 20.7417C23.4748 20.7417 26.7083 24.8684 26.7083 24.8684M15.4998 15.6667C16.6535 15.6667 17.7599 15.2084 18.5757 14.3926C19.3915 13.5768 19.8498 12.4704 19.8498 11.3167C19.8498 10.163 19.3915 9.05654 18.5757 8.24075C17.7599 7.42497 16.6535 6.96667 15.4998 6.96667C14.3461 6.96667 13.2396 7.42497 12.4239 8.24075C11.6081 9.05654 11.1498 10.163 11.1498 11.3167C11.1498 12.4704 11.6081 13.5768 12.4239 14.3926C13.2396 15.2084 14.3461 15.6667 15.4998 15.6667Z" fill="black"/>
<path d="M4.29272 24.8684C4.29272 24.8684 7.52477 20.7417 15.4998 20.7417C23.4748 20.7417 26.7083 24.8684 26.7083 24.8684M15.4998 15.6667C16.6535 15.6667 17.7599 15.2084 18.5757 14.3926C19.3915 13.5768 19.8498 12.4704 19.8498 11.3167C19.8498 10.163 19.3915 9.05654 18.5757 8.24075C17.7599 7.42497 16.6535 6.96667 15.4998 6.96667C14.3461 6.96667 13.2396 7.42497 12.4239 8.24075C11.6081 9.05654 11.1498 10.163 11.1498 11.3167C11.1498 12.4704 11.6081 13.5768 12.4239 14.3926C13.2396 15.2084 14.3461 15.6667 15.4998 15.6667Z" stroke="#FFFEFE" stroke-width="1.5" stroke-linecap="round" stroke-linejoin="round"/>
</g>
</g>
</svg>
